<?xml version="1.0" encoding="iso-8859-1"?>
<!-- Uploaded to: SVG Repo, www.svgrepo.com, Generator: SVG Repo Mixer Tools -->
<svg height="800px" width="800px" version="1.1" id="Layer_1" xmlns="http://www.w3.org/2000/svg" xmlns:xlink="http://www.w3.org/1999/xlink" 
	 viewBox="0 0 512 512" xml:space="preserve">
<path style="fill:#3D6DEB;" d="M488.725,0c-12.853,0-23.273,10.42-23.273,23.273v325.818H79.456l76.636-76.636
	c9.089-9.087,9.089-23.824,0-32.912c-9.087-9.089-23.824-9.089-32.912,0L6.82,355.904c-0.545,0.543-1.06,1.116-1.547,1.711
	c-0.22,0.267-0.41,0.548-0.613,0.821c-0.251,0.332-0.509,0.659-0.74,1.005c-0.225,0.334-0.419,0.681-0.622,1.022
	c-0.183,0.309-0.377,0.611-0.548,0.929c-0.188,0.352-0.348,0.714-0.517,1.071c-0.155,0.329-0.32,0.653-0.461,0.991
	c-0.144,0.351-0.261,0.709-0.388,1.064c-0.13,0.36-0.268,0.715-0.38,1.083c-0.107,0.36-0.188,0.725-0.281,1.088
	c-0.093,0.372-0.197,0.742-0.273,1.12c-0.085,0.424-0.135,0.85-0.194,1.277c-0.047,0.326-0.109,0.645-0.143,0.974
	c-0.15,1.53-0.15,3.07,0,4.6c0.033,0.329,0.096,0.649,0.143,0.974c0.059,0.427,0.109,0.853,0.194,1.277
	c0.076,0.38,0.18,0.748,0.273,1.12c0.093,0.363,0.172,0.728,0.281,1.088c0.112,0.368,0.25,0.723,0.38,1.083
	c0.127,0.355,0.244,0.714,0.388,1.064c0.141,0.338,0.306,0.663,0.461,0.991c0.169,0.358,0.329,0.72,0.517,1.071
	c0.171,0.318,0.365,0.619,0.548,0.929c0.205,0.343,0.399,0.689,0.622,1.022c0.23,0.346,0.487,0.673,0.74,1.005
	c0.205,0.273,0.394,0.554,0.613,0.821c0.489,0.594,1.002,1.168,1.547,1.711L123.179,505.18c4.543,4.549,10.499,6.82,16.455,6.82
	c5.956,0,11.913-2.271,16.455-6.817c9.089-9.087,9.089-23.824,0-32.912l-76.634-76.634h409.269c12.853,0,23.273-10.42,23.273-23.273
	V23.273C511.998,10.42,501.578,0,488.725,0z"/>
</svg>